<svg width="82" height="82" viewBox="0 0 82 82" fill="none" xmlns="http://www.w3.org/2000/svg">
<path d="M13 25.1168C13 23.9477 13.9477 23 15.1168 23H44.3292C45.4983 23 46.446 23.9477 46.446 25.1168V51.3656C46.446 52.5347 45.4983 53.4825 44.3292 53.4825H15.1168C13.9477 53.4825 13 52.5347 13 51.3656V25.1168Z" fill="#979797"/>
<path d="M48.5625 30.448C48.5625 29.1854 49.6606 28.2036 50.9153 28.3443L60.4726 29.4165C61.2688 29.5058 61.9463 30.0369 62.2231 30.7888L69.5291 50.6343C70.0378 52.0162 69.0152 53.4824 67.5426 53.4824H50.6793C49.5102 53.4824 48.5625 52.5347 48.5625 51.3656V30.448Z" fill="#979797"/>
<path d="M51.9492 32.9427C51.9492 31.6964 53.0205 30.7199 54.2614 30.8349L59.5281 31.3229C60.3312 31.3973 61.0223 31.9217 61.3102 32.6751L63.4918 38.3846C64.0375 39.8128 62.9356 41.3307 61.4087 41.2544L53.9603 40.882C52.8337 40.8257 51.9492 39.8958 51.9492 38.7678V32.9427Z" fill="white"/>
<mask id="path-4-outside-1" maskUnits="userSpaceOnUse" x="19.4668" y="46.8254" width="14" height="14" fill="black">
<rect fill="white" x="19.4668" y="46.8254" width="14" height="14"/>
<path d="M30.7809 53.4825C30.7809 56.0545 28.6959 58.1395 26.1238 58.1395C23.5518 58.1395 21.4668 56.0545 21.4668 53.4825C21.4668 50.9104 23.5518 48.8254 26.1238 48.8254C28.6959 48.8254 30.7809 50.9104 30.7809 53.4825Z"/>
</mask>
<path d="M30.7809 53.4825C30.7809 56.0545 28.6959 58.1395 26.1238 58.1395C23.5518 58.1395 21.4668 56.0545 21.4668 53.4825C21.4668 50.9104 23.5518 48.8254 26.1238 48.8254C28.6959 48.8254 30.7809 50.9104 30.7809 53.4825Z" fill="#979797"/>
<path d="M28.7809 53.4825C28.7809 54.9499 27.5913 56.1395 26.1238 56.1395V60.1395C29.8004 60.1395 32.7809 57.159 32.7809 53.4825H28.7809ZM26.1238 56.1395C24.6564 56.1395 23.4668 54.9499 23.4668 53.4825H19.4668C19.4668 57.159 22.4473 60.1395 26.1238 60.1395V56.1395ZM23.4668 53.4825C23.4668 52.015 24.6564 50.8254 26.1238 50.8254V46.8254C22.4473 46.8254 19.4668 49.8059 19.4668 53.4825H23.4668ZM26.1238 50.8254C27.5913 50.8254 28.7809 52.015 28.7809 53.4825H32.7809C32.7809 49.8059 29.8004 46.8254 26.1238 46.8254V50.8254Z" fill="white" mask="url(#path-4-outside-1)"/>
<mask id="path-6-outside-2" maskUnits="userSpaceOnUse" x="52.0664" y="46.8254" width="14" height="14" fill="black">
<rect fill="white" x="52.0664" y="46.8254" width="14" height="14"/>
<path d="M63.3805 53.4825C63.3805 56.0545 61.2955 58.1395 58.7234 58.1395C56.1514 58.1395 54.0664 56.0545 54.0664 53.4825C54.0664 50.9104 56.1514 48.8254 58.7234 48.8254C61.2955 48.8254 63.3805 50.9104 63.3805 53.4825Z"/>
</mask>
<path d="M63.3805 53.4825C63.3805 56.0545 61.2955 58.1395 58.7234 58.1395C56.1514 58.1395 54.0664 56.0545 54.0664 53.4825C54.0664 50.9104 56.1514 48.8254 58.7234 48.8254C61.2955 48.8254 63.3805 50.9104 63.3805 53.4825Z" fill="#979797"/>
<path d="M61.3805 53.4825C61.3805 54.9499 60.1909 56.1395 58.7234 56.1395V60.1395C62.4 60.1395 65.3805 57.159 65.3805 53.4825H61.3805ZM58.7234 56.1395C57.256 56.1395 56.0664 54.9499 56.0664 53.4825H52.0664C52.0664 57.159 55.0469 60.1395 58.7234 60.1395V56.1395ZM56.0664 53.4825C56.0664 52.015 57.256 50.8254 58.7234 50.8254V46.8254C55.0469 46.8254 52.0664 49.8059 52.0664 53.4825H56.0664ZM58.7234 50.8254C60.1909 50.8254 61.3805 52.015 61.3805 53.4825H65.3805C65.3805 49.8059 62.4 46.8254 58.7234 46.8254V50.8254Z" fill="white" mask="url(#path-6-outside-2)"/>
<circle cx="41" cy="41" r="39" stroke="#979797" stroke-width="4"/>
</svg>
