<svg width="38" height="38" viewBox="0 0 38 38" fill="none" xmlns="http://www.w3.org/2000/svg">
<path d="M28.5038 21.1411L30.5105 12.0602C30.5959 11.74 30.539 11.449 30.3397 11.187C30.1405 10.9251 29.8701 10.7941 29.5285 10.7941H12.7492L12.365 8.8295C12.3081 8.59666 12.18 8.40748 11.9807 8.26195C11.81 8.08732 11.6107 8 11.383 8H6.98538C6.70075 8 6.45881 8.10187 6.25956 8.30561C6.06032 8.50934 5.96069 8.75674 5.96069 9.04779V9.74632C5.96069 10.0374 6.06032 10.2848 6.25956 10.4885C6.45881 10.6922 6.70075 10.7941 6.98538 10.7941H9.97405L12.9627 25.7688C12.5927 26.0017 12.2938 26.3073 12.0661 26.6857C11.8669 27.064 11.7673 27.4715 11.7673 27.9081C11.7673 28.5775 11.995 29.1451 12.4504 29.6108C12.9343 30.1055 13.5035 30.3529 14.1582 30.3529C14.8129 30.3529 15.3679 30.1055 15.8233 29.6108C16.3072 29.1451 16.5491 28.563 16.5491 27.8644C16.5491 27.195 16.3072 26.6275 15.8233 26.1618H24.7893C24.3054 26.6275 24.0635 27.195 24.0635 27.8644C24.0635 28.563 24.2912 29.1451 24.7466 29.6108C25.2305 30.1055 25.7998 30.3529 26.4544 30.3529C27.1091 30.3529 27.6641 30.1055 28.1196 29.6108C28.6034 29.1451 28.8454 28.5775 28.8454 27.9081C28.8454 27.4424 28.7173 27.0204 28.4611 26.642C28.2334 26.2345 27.9061 25.9289 27.4791 25.7252L27.7353 24.6337C27.7922 24.3136 27.7211 24.0225 27.5218 23.7606C27.3226 23.4986 27.0664 23.3676 26.7533 23.3676H15.2683L15.0121 21.9706H27.5218C27.7495 21.9706 27.9488 21.8978 28.1196 21.7523C28.3188 21.6068 28.4469 21.403 28.5038 21.1411Z" fill="#AEAEAE"/>
<circle cx="19" cy="19" r="18.5" stroke="#AEAEAE"/>
</svg>
