<svg width="38" height="38" viewBox="0 0 38 38" fill="none" xmlns="http://www.w3.org/2000/svg">
<circle cx="19" cy="19" r="18.5" stroke="#AEAEAE"/>
<path d="M28.5658 10.5277C27.687 9.77492 26.6943 9.30034 25.5877 9.10396C24.481 8.90759 23.3906 8.98941 22.3165 9.34944C21.2424 9.70946 20.2985 10.315 19.4848 11.1659L18.5084 12.1478L17.5319 11.1659C16.7182 10.315 15.7743 9.70946 14.7002 9.34944C13.6261 8.98941 12.5357 8.90759 11.4291 9.10396C10.3224 9.30034 9.32971 9.77492 8.4509 10.5277C7.4419 11.3787 6.7421 12.426 6.35152 13.6697C5.96094 14.9135 5.89584 16.1735 6.15623 17.45C6.44917 18.6937 7.05131 19.7901 7.96267 20.7393L17.3854 30.5091C17.7109 30.8364 18.0852 31 18.5084 31C18.9315 31 19.3058 30.8364 19.6313 30.5091L29.0541 20.6902C29.9654 19.7738 30.5513 18.6937 30.8117 17.45C31.1046 16.1735 31.0558 14.9135 30.6652 13.6697C30.2746 12.426 29.5748 11.3787 28.5658 10.5277Z" fill="#C1C1C1"/>
</svg>
