<svg width="24" height="24" viewBox="0 0 24 24" fill="none" xmlns="http://www.w3.org/2000/svg">
<path d="M23.6719 20.7656L18.9844 16.0781C18.7656 15.8594 18.5 15.75 18.1875 15.75H17.4375C18.8125 14 19.5 12 19.5 9.75C19.5 7.96875 19.0625 6.34375 18.1875 4.875C17.3125 3.375 16.125 2.1875 14.625 1.3125C13.1562 0.4375 11.5312 0 9.75 0C7.96875 0 6.32812 0.4375 4.82812 1.3125C3.35938 2.1875 2.1875 3.375 1.3125 4.875C0.4375 6.34375 0 7.96875 0 9.75C0 11.5312 0.4375 13.1719 1.3125 14.6719C2.1875 16.1406 3.35938 17.3125 4.82812 18.1875C6.32812 19.0625 7.96875 19.5 9.75 19.5C12 19.5 14 18.8125 15.75 17.4375V18.1875C15.75 18.5 15.8594 18.7656 16.0781 18.9844L20.7656 23.6719C20.9844 23.8906 21.25 24 21.5625 24C21.875 24 22.1406 23.8906 22.3594 23.6719L23.6719 22.3594C23.8906 22.1406 24 21.875 24 21.5625C24 21.25 23.8906 20.9844 23.6719 20.7656ZM9.75 15.75C8.65625 15.75 7.64062 15.4844 6.70312 14.9531C5.79688 14.4219 5.07812 13.7031 4.54688 12.7969C4.01562 11.8594 3.75 10.8438 3.75 9.75C3.75 8.65625 4.01562 7.65625 4.54688 6.75C5.07812 5.8125 5.79688 5.07812 6.70312 4.54688C7.64062 4.01562 8.65625 3.75 9.75 3.75C10.8438 3.75 11.8438 4.01562 12.75 4.54688C13.6875 5.07812 14.4219 5.8125 14.9531 6.75C15.4844 7.65625 15.75 8.65625 15.75 9.75C15.75 10.8438 15.4844 11.8594 14.9531 12.7969C14.4219 13.7031 13.6875 14.4219 12.75 14.9531C11.8438 15.4844 10.8438 15.75 9.75 15.75Z" fill="#AEAEAE"/>
</svg>
