<svg width="82" height="82" viewBox="0 0 82 82" fill="none" xmlns="http://www.w3.org/2000/svg">
<circle cx="41" cy="41" r="39" stroke="#00C09D" stroke-width="4"/>
<g clip-path="url(#clip0)">
<path d="M13.8496 26.2237H65.0466V55.7604H13.8496V26.2237Z" fill="#00C09D"/>
<path d="M24.679 51.8222C24.679 48.0162 21.5936 44.9303 17.7871 44.9303V37.0538C21.5936 37.0538 24.679 33.9684 24.679 30.1619H54.2158C54.2158 33.9684 57.3016 37.0538 61.1077 37.0538V44.9303C57.3016 44.9303 54.2158 48.0162 54.2158 51.8222H24.679Z" fill="white"/>
<path d="M39.4476 47.884C35.6415 47.884 32.5557 44.7986 32.5557 40.9921C32.5557 37.186 35.6415 34.1002 39.4476 34.1002C43.2541 34.1002 46.3395 37.186 46.3395 40.9921C46.3351 44.7967 43.2522 47.8796 39.4476 47.884Z" fill="#00C09D"/>
<path d="M18.7718 33.1156H16.8027V30.1619C16.8027 29.6182 17.2436 29.1774 17.7873 29.1774H20.741V31.1465H18.7718V33.1156Z" fill="white"/>
<path d="M20.741 52.8068H17.7873C17.2436 52.8068 16.8027 52.3664 16.8027 51.8222V48.8685H18.7718V50.8376H20.741V52.8068Z" fill="white"/>
<path d="M62.0925 33.1156H60.1234V31.1465H58.1543V29.1774H61.108C61.6522 29.1774 62.0925 29.6182 62.0925 30.1619V33.1156Z" fill="white"/>
<path d="M61.108 52.8068H58.1543V50.8376H60.1234V48.8685H62.0925V51.8222C62.0925 52.3664 61.6522 52.8068 61.108 52.8068Z" fill="white"/>
<path d="M52.149 17.9073L49.1953 12L47.4329 12.8802L49.1063 16.2276C41.5895 13.2922 33.1457 13.9316 26.1562 17.9665L27.1408 19.6697C33.8371 15.8084 41.9582 15.3171 49.0713 18.3424L44.9152 20.4197L45.7955 22.1821L51.7028 19.2284C51.9374 19.113 52.1163 18.9083 52.1999 18.6607C52.2836 18.4126 52.2653 18.1415 52.149 17.9073Z" fill="#00C09D"/>
<path d="M38.4631 64.6214C35.1565 64.6176 31.8841 63.9498 28.8401 62.6576L32.9961 60.5798L32.1159 58.8174L26.2085 61.7711C25.7215 62.0144 25.5239 62.6062 25.7672 63.0927L28.7209 69L30.4833 68.1198L28.8098 64.7724C36.3252 67.7063 44.767 67.0665 51.7546 63.0335L50.7701 61.3303C47.0284 63.4898 42.7835 64.6248 38.4631 64.6214Z" fill="#00C09D"/>
</g>
<defs>
<clipPath id="clip0">
<rect width="57" height="57" fill="white" transform="translate(11 12)"/>
</clipPath>
</defs>
</svg>
