<svg width="43" height="43" viewBox="0 0 43 43" fill="none" xmlns="http://www.w3.org/2000/svg">
<path d="M32 29.5143C32 25.0625 30.9336 19.9167 26.6352 19.9167C25.3063 21.2539 23.5016 22.0833 21.5 22.0833C19.4984 22.0833 17.6938 21.2539 16.3648 19.9167C12.0664 19.9167 11 25.0625 11 29.5143C11 31.9857 12.575 34 14.4945 34H28.5055C30.425 34 32 31.9857 32 29.5143ZM27.8 14.5C27.8 10.9115 24.9781 8 21.5 8C18.0219 8 15.2 10.9115 15.2 14.5C15.2 18.0885 18.0219 21 21.5 21C24.9781 21 27.8 18.0885 27.8 14.5Z" fill="#AEAEAE"/>
<circle cx="21.5" cy="21.5" r="21" stroke="#AEAEAE"/>
</svg>
