<svg width="82" height="82" viewBox="0 0 82 82" fill="none" xmlns="http://www.w3.org/2000/svg">
<circle cx="41" cy="41" r="39" stroke="#00C09D" stroke-width="4"/>
<path d="M58.2572 44.1035L61.9297 27.4473C62.086 26.86 61.9818 26.3262 61.6171 25.8457C61.2525 25.3652 60.7576 25.125 60.1325 25.125H29.424L28.7208 21.5215C28.6166 21.0944 28.3822 20.7474 28.0175 20.4805C27.705 20.1602 27.3403 20 26.9236 20H18.8753C18.3544 20 17.9116 20.1868 17.547 20.5605C17.1823 20.9342 17 21.388 17 21.9219V23.2031C17 23.737 17.1823 24.1908 17.547 24.5645C17.9116 24.9382 18.3544 25.125 18.8753 25.125H24.345L29.8147 52.5918C29.1375 53.0189 28.5906 53.5794 28.1738 54.2734C27.8092 54.9674 27.6268 55.7148 27.6268 56.5156C27.6268 57.7435 28.0436 58.7845 28.8771 59.6387C29.7626 60.5462 30.8045 61 32.0026 61C33.2007 61 34.2165 60.5462 35.05 59.6387C35.9356 58.7845 36.3784 57.7168 36.3784 56.4355C36.3784 55.2077 35.9356 54.1667 35.05 53.3125H51.4591C50.5735 54.1667 50.1308 55.2077 50.1308 56.4355C50.1308 57.7168 50.5475 58.7845 51.381 59.6387C52.2665 60.5462 53.3084 61 54.5065 61C55.7046 61 56.7204 60.5462 57.5539 59.6387C58.4395 58.7845 58.8823 57.7435 58.8823 56.5156C58.8823 55.6615 58.6479 54.8874 58.179 54.1934C57.7623 53.446 57.1632 52.8854 56.3818 52.5117L56.8507 50.5098C56.9549 49.9225 56.8246 49.3887 56.46 48.9082C56.0953 48.4277 55.6265 48.1875 55.0535 48.1875H34.0342L33.5654 45.625H56.46C56.8767 45.625 57.2414 45.4915 57.5539 45.2246C57.9186 44.9577 58.153 44.584 58.2572 44.1035Z" fill="#00C09D"/>
</svg>
