<svg width="197" height="82" viewBox="0 0 197 82" fill="none" xmlns="http://www.w3.org/2000/svg">
<rect x="82" y="40" width="115" height="4" fill="#00C09D"/>
<circle cx="41" cy="41" r="39" stroke="#00C09D" stroke-width="4"/>
<path d="M35.6315 23.2852L37.1549 25.5703H60.0003V23.2852H35.6315Z" fill="#00C09D"/>
<path d="M40.5 47.6602C44.4901 47.6602 47.7363 44.4139 47.7363 40.4238C47.7363 36.4337 44.4901 33.1875 40.5 33.1875C36.5099 33.1875 33.2637 36.4337 33.2637 40.4238C33.2637 44.4139 36.5099 47.6602 40.5 47.6602Z" fill="#00C09D"/>
<path d="M40.5002 49.9453C39.4338 49.9453 38.4079 49.7692 37.4498 49.4442L40.0634 60H40.9549L43.5536 49.4434C42.5946 49.7689 41.5678 49.9453 40.5002 49.9453Z" fill="#00C09D"/>
<path d="M47.997 46.2867C47.4942 46.9285 46.9104 47.5039 46.262 47.9985L43.2976 60H51.1638V51.8496C51.1638 49.4874 49.8918 47.4177 47.997 46.2867Z" fill="#00C09D"/>
<path d="M33.0027 46.2867C31.1079 47.4177 29.8359 49.4874 29.8359 51.8496V60H37.7022L34.7377 47.9985C34.0894 47.5036 33.5056 46.9285 33.0027 46.2867Z" fill="#00C09D"/>
<path d="M31.3615 21H21V52.9922H27.5508V51.8496C27.5508 48.6605 29.2641 45.8645 31.8182 44.3324C31.279 43.1392 30.9785 41.816 30.9785 40.4238C30.9785 35.1736 35.2498 30.9023 40.5 30.9023C45.7502 30.9023 50.0215 35.1736 50.0215 40.4238C50.0215 41.816 49.721 43.1392 49.1818 44.3324C51.7359 45.8645 53.4492 48.6605 53.4492 51.8496V52.9922H60V27.8555H35.9318L31.3615 21Z" fill="#00C09D"/>
</svg>
