<svg width="31" height="31" viewBox="0 0 31 31" fill="none" xmlns="http://www.w3.org/2000/svg">
<path d="M29.1154 15.7923L29.1134 15.7957C28.23 17.332 27.0023 18.5615 25.4209 19.4875C23.8857 20.3698 22.1967 20.8125 20.3438 20.8125C19.6871 20.8125 19.052 20.7546 18.4378 20.6394L18.1599 20.5873L17.972 20.7987L16.5189 22.4334L16.5189 22.4334L16.5163 22.4364C16.3324 22.6465 16.1083 22.75 15.8027 22.75H13.5625H13.0625V23.25V25.6719C13.0625 25.9444 12.9728 26.1599 12.7851 26.3476C12.5974 26.5353 12.3819 26.625 12.1094 26.625H9.6875H9.1875V27.125V29.5469C9.1875 29.8194 9.09784 30.0349 8.91012 30.2226C8.7224 30.4103 8.50692 30.5 8.23438 30.5H1.45312C1.18058 30.5 0.965101 30.4103 0.777381 30.2226C0.589662 30.0349 0.5 29.8194 0.5 29.5469V24.8242C0.5 24.5517 0.589663 24.3362 0.777381 24.1485L10.586 14.3399L10.8045 14.1214L10.7068 13.8282C10.3602 12.7885 10.1875 11.7318 10.1875 10.6562C10.1875 8.8032 10.6302 7.11419 11.5126 5.57899C12.4386 3.99768 13.6681 2.76993 15.2043 1.88658L15.2043 1.88659L15.2077 1.88463C16.7852 0.961221 18.4941 0.5 20.3438 0.5C22.1934 0.5 23.8801 0.961145 25.4146 1.88187L25.4209 1.88563L25.4272 1.8892C27.002 2.77259 28.2274 3.99801 29.1108 5.57275L29.1144 5.57912L29.1181 5.58537C30.0389 7.11992 30.5 8.80661 30.5 10.6562C30.5 12.5059 30.0388 14.2148 29.1154 15.7923ZM19.8438 7.75C19.8438 8.68839 20.1779 9.50221 20.8379 10.1621C21.4978 10.8221 22.3116 11.1562 23.25 11.1562C24.1884 11.1562 25.0022 10.8221 25.6621 10.1621C26.3221 9.50221 26.6562 8.68839 26.6562 7.75C26.6562 6.81161 26.3221 5.99779 25.6621 5.33785C25.0022 4.67792 24.1884 4.34375 23.25 4.34375C22.3116 4.34375 21.4978 4.67792 20.8379 5.33785C20.1779 5.99779 19.8438 6.81161 19.8438 7.75Z" stroke="#4E4E4E"/>
</svg>
