<svg width="233" height="37" viewBox="0 0 233 37" fill="none" xmlns="http://www.w3.org/2000/svg">
<path d="M0 31V7.60377C0 3.05451 2.26708 0.779874 6.80124 0.779874H12.8252C15.1571 0.779874 16.7764 1.40377 17.6832 2.65157C18.7196 1.40377 20.339 0.779874 22.5413 0.779874H28.5652C33.0994 0.779874 35.3665 3.05451 35.3665 7.60377V29.2453L31.6744 31H31.48V7.60377C31.48 5.39413 30.5084 4.28931 28.5652 4.28931H22.5413C20.598 4.28931 19.6264 5.39413 19.6264 7.60377V29.2453L15.9343 31H15.74V7.60377C15.74 5.39413 14.7684 4.28931 12.8252 4.28931H6.80124C4.85803 4.28931 3.88642 5.39413 3.88642 7.60377V29.2453L0.194321 31H0Z" fill="#00C082"/>
<path d="M47.9973 30.2201C44.1109 30.2201 42.1677 28.2704 42.1677 24.3711V9.74843L45.8598 7.99371H46.0541V24.3711C46.0541 25.9308 46.7019 26.7107 47.9973 26.7107H52.4667C53.7622 26.7107 54.4099 25.9308 54.4099 24.3711V9.74843L58.102 7.99371H58.2964V24.3711C58.2964 28.2704 56.3532 30.2201 52.4667 30.2201H47.9973Z" fill="#00C082"/>
<path d="M69.3727 30.2201C65.4862 30.2201 63.543 28.2704 63.543 24.3711V23.6692L67.2351 21.9145H67.4295V24.3711C67.4295 25.9308 68.0772 26.7107 69.3727 26.7107H73.8421C75.1375 26.7107 75.7853 25.9308 75.7853 24.3711V22.8308C75.7853 21.2711 75.1375 20.4912 73.8421 20.4912H70.1888C66.3024 20.4912 64.3592 18.535 64.3592 14.6226C64.3592 10.7233 66.3024 8.77359 70.1888 8.77359H72.4624C76.3488 8.77359 78.292 10.3463 78.292 13.4918L74.5999 15.2465H74.4056V14.6226C74.4056 13.0629 73.7579 12.283 72.4624 12.283H70.1888C68.8933 12.283 68.2456 13.0629 68.2456 14.6226C68.2456 16.1954 68.8933 16.9818 70.1888 16.9818H73.8421C77.7285 16.9818 79.6717 18.9314 79.6717 22.8308V24.3711C79.6717 28.2704 77.7285 30.2201 73.8421 30.2201H69.3727Z" fill="#00C082"/>
<path d="M85.89 31V1.75472L89.5821 0H89.7764V29.2453L86.0843 31H85.89Z" fill="#00C082"/>
<path d="M97.8407 4.46478C97.3873 3.99686 97.1606 3.43795 97.1606 2.78805C97.1606 2.12516 97.3873 1.55975 97.8407 1.09182C98.2941 0.623899 98.8447 0.389937 99.4925 0.389937C100.14 0.389937 100.691 0.623899 101.144 1.09182C101.598 1.55975 101.824 2.12516 101.824 2.78805C101.824 3.43795 101.598 3.99686 101.144 4.46478C100.691 4.9327 100.14 5.16667 99.4925 5.16667C98.8447 5.16667 98.2941 4.9327 97.8407 4.46478ZM97.5492 31V9.74843L101.241 7.99371H101.436V29.2453L97.7436 31H97.5492Z" fill="#00C082"/>
<path d="M108.237 31V14.6226C108.237 10.7233 110.18 8.77359 114.067 8.77359H118.536C120.324 8.77359 121.619 9.25451 122.422 10.2164C123.277 9.25451 124.573 8.77359 126.309 8.77359H130.778C134.665 8.77359 136.608 10.7233 136.608 14.6226V29.2453L132.916 31H132.721V14.6226C132.721 13.0629 132.074 12.283 130.778 12.283H126.309C125.013 12.283 124.366 13.0629 124.366 14.6226V29.2453L120.673 31H120.479V14.6226C120.479 13.0629 119.831 12.283 118.536 12.283H114.067C112.771 12.283 112.123 13.0629 112.123 14.6226V29.2453L108.431 31H108.237Z" fill="#00C082"/>
<path d="M151.784 21.3491L155.204 19.7308H155.399L158.974 24.8585C159.091 24.4426 159.149 23.9551 159.149 23.3962V7.60377C159.149 5.39413 158.177 4.28931 156.234 4.28931H150.21C148.267 4.28931 147.295 5.39413 147.295 7.60377V23.3962C147.295 25.6059 148.267 26.7107 150.21 26.7107H155.515L151.784 21.3491ZM150.21 30.2201C145.676 30.2201 143.409 27.9455 143.409 23.3962V7.60377C143.409 3.05451 145.676 0.779874 150.21 0.779874H156.234C160.768 0.779874 163.035 3.05451 163.035 7.60377V23.3962C163.035 25.5929 162.504 27.2631 161.442 28.4069L162.122 29.3818L158.702 31H158.508L157.886 30.1031C157.368 30.1811 156.817 30.2201 156.234 30.2201H150.21Z" fill="#00C082"/>
<path d="M171.1 4.46478C170.646 3.99686 170.42 3.43795 170.42 2.78805C170.42 2.12516 170.646 1.55975 171.1 1.09182C171.553 0.623899 172.104 0.389937 172.752 0.389937C173.399 0.389937 173.95 0.623899 174.403 1.09182C174.857 1.55975 175.083 2.12516 175.083 2.78805C175.083 3.43795 174.857 3.99686 174.403 4.46478C173.95 4.9327 173.399 5.16667 172.752 5.16667C172.104 5.16667 171.553 4.9327 171.1 4.46478ZM170.808 31V9.74843L174.5 7.99371H174.695V29.2453L171.003 31H170.808Z" fill="#00C082"/>
<path d="M187.326 26.7107H191.795C193.091 26.7107 193.738 25.9308 193.738 24.3711V14.6226C193.738 13.0629 193.091 12.283 191.795 12.283H187.326C186.03 12.283 185.382 13.0629 185.382 14.6226V24.3711C185.382 25.9308 186.03 26.7107 187.326 26.7107ZM187.326 30.2201C183.439 30.2201 181.496 28.2704 181.496 24.3711V14.6226C181.496 10.7233 183.439 8.77359 187.326 8.77359H191.795C195.681 8.77359 197.625 10.7233 197.625 14.6226V24.3711C197.625 28.2704 195.681 30.2201 191.795 30.2201H187.326Z" fill="#00C082"/>
<path d="M208.701 30.2201C204.815 30.2201 202.871 28.2704 202.871 24.3711V23.6692L206.563 21.9145H206.758V24.3711C206.758 25.9308 207.405 26.7107 208.701 26.7107H213.17C214.466 26.7107 215.114 25.9308 215.114 24.3711V22.8308C215.114 21.2711 214.466 20.4912 213.17 20.4912H209.517C205.631 20.4912 203.687 18.535 203.687 14.6226C203.687 10.7233 205.631 8.77359 209.517 8.77359H211.791C215.677 8.77359 217.62 10.3463 217.62 13.4918L213.928 15.2465H213.734V14.6226C213.734 13.0629 213.086 12.283 211.791 12.283H209.517C208.222 12.283 207.574 13.0629 207.574 14.6226C207.574 16.1954 208.222 16.9818 209.517 16.9818H213.17C217.057 16.9818 219 18.9314 219 22.8308V24.3711C219 28.2704 217.057 30.2201 213.17 30.2201H208.701Z" fill="#00C082"/>
<path d="M223 37L233 27V37H223Z" fill="#00C082"/>
</svg>
